<mxfile host="app.diagrams.net" modified="2022-10-19T13:59:23.813Z" agent="5.0 (X11; Ubuntu)" etag="W4kFCID4dBCTMUcVySQp" version="20.4.1" type="github">
  <diagram id="nfKpZZzp4Y7tzjKCaQx8" name="Page-1">
    <mxGraphModel dx="1360" dy="793" grid="1" gridSize="10" guides="1" tooltips="1" connect="1" arrows="1" fold="1" page="1" pageScale="1" pageWidth="827" pageHeight="1169" math="0" shadow="0">
      <root>
        <mxCell id="0" />
        <mxCell id="1" parent="0" />
        <mxCell id="ZAwoagN40EhjPlJrz1fd-1" value="Actor" style="shape=umlActor;verticalLabelPosition=bottom;verticalAlign=top;html=1;outlineConnect=0;" vertex="1" parent="1">
          <mxGeometry x="70" y="140" width="30" height="60" as="geometry" />
        </mxCell>
        <mxCell id="ZAwoagN40EhjPlJrz1fd-2" value="Actor" style="shape=umlActor;verticalLabelPosition=bottom;verticalAlign=top;html=1;outlineConnect=0;" vertex="1" parent="1">
          <mxGeometry x="720" y="140" width="30" height="60" as="geometry" />
        </mxCell>
        <mxCell id="ZAwoagN40EhjPlJrz1fd-3" value="Actor" style="shape=umlActor;verticalLabelPosition=bottom;verticalAlign=top;html=1;outlineConnect=0;" vertex="1" parent="1">
          <mxGeometry x="730" y="380" width="30" height="60" as="geometry" />
        </mxCell>
      </root>
    </mxGraphModel>
  </diagram>
</mxfile>
